<svg version="1.1" xmlns="http://www.w3.org/2000/svg" viewBox="-50.99982448405998 -65.90202868525384 102.000002 141.01368677532605" fill="none" stroke="black" stroke-width="0.6%" vector-effect="non-scaling-stroke">
    <path d="M -49.71778 40.15759 A 50 30.69804 180 1 0 49.71813 40.15759" />
    <path d="M -24.74859 -58.60813 A 35 21.48863 360 0 1 34.80274 -45.69262 A 35 21.48863 360 1 1 -34.80239 -45.69262 A 35 21.48863 360 0 1 -24.74859 -58.60813 Z" />
    <path d="M -21.21305 -56.43746 A 30 18.41883 360 0 1 30.00018 -43.4134 A 30 18.41883 360 0 1 -29.99982 -43.4134 A 30 18.41883 360 0 1 -21.21305 -56.43746 Z" />
    <path d="M -21.21305 -49.80703 A 30 18.41883 360 0 1 29.51023 -40.09818" />
    <path d="M -29.50987 -40.09818 A 30 18.41883 360 0 1 -21.21305 -49.80703" />
    <path d="M -34.80239 -45.69262 L -49.71778 40.15759" />
    <path d="M 34.80274 -45.69262 L 49.71813 40.15759" />
</svg>