<svg version="1.1" xmlns="http://www.w3.org/2000/svg" viewBox="-50.98269645280605 -65.89096743218384 102.000002 141.013646887474" fill="none" stroke="black" stroke-width="0.6%" vector-effect="non-scaling-stroke">
    <path d="M -49.70055 40.16413 A 50 30.70155 180 1 0 49.73515 40.16413" />
    <path d="M -24.73446 -58.59452 A 35 21.49109 0 0 1 34.8198 -45.67978 A 35 21.49109 0 1 1 -34.78519 -45.67978 A 35 21.49109 0 0 1 -24.73446 -58.59452 Z" />
    <path d="M -21.19849 -56.42385 A 30 18.42093 0 0 1 30.0173 -43.39988 A 30 18.42093 0 1 1 -29.9827 -43.39988 A 30 18.42093 0 0 1 -21.19849 -56.42385 Z" />
    <path d="M -21.19849 -49.79389 A 30 18.42093 0 0 1 29.52754 -40.08489" />
    <path d="M -29.49293 -40.08489 A 30 18.42093 0 0 1 -21.19849 -49.79389" />
    <path d="M -34.78519 -45.67978 L -49.70055 40.16413" />
    <path d="M 34.8198 -45.67978 L 49.73515 40.16413" />
</svg>